_________________________  Visit us at _________________________
  
http://p2pdl.com  ____________________________  http://p2pdl.com

Apartment 1303 2013 BRRip 480p x264 - VYTO

Genre: Horror
Plot: A modern ghost story which turns a love/hate relationship 
between mother and daughter into a tale of horror. 
Some rentals are too good to be true.
Director: Michael Taverna
Stars: Mischa Barton, Rebecca De Mornay, Julianne Michelle
Rated: N/A


Info: 
http://www.imdb.com/title/tt1540767/

General
Format                         : MPEG-4
File size                      : 272 MiB
Duration                       : 1h 25mn
Overall bit rate mode          : Variable
Overall bit rate               : 446 Kbps

Video
Format                         : AVC
Format profile                 : High 10@L4.1
Bit rate                       : 404 Kbps
Width                          : 720 pixels
Height                         : 304 pixels
Display aspect ratio           : 2.35:1
Frame rate mode                : Constant
Frame rate                     : 23.976 fps
Bit depth                      : 10 bits
Stream size                    : 246 MiB (90%)

Audio
Format                         : AAC
Bit rate                       : 40.0 Kbps
Channel(s)                     : 2 channels
Channel positions              : Front: L R
Sampling rate                  : 48.0 KHz / 24.0 KHz
Stream size                    : 24.4 MiB (9%)
Language                       : English

Subtitle                       : No
Source                         : 720p.BluRay.x264-ROVERS (Thanks)

Screens:
 
http://www.ultraimg.com/images/xcYi9.png 
http://www.ultraimg.com/images/nFkC5.png 
http://www.ultraimg.com/images/12Bzo.png 
http://www.ultraimg.com/images/Srjm5.png 
http://www.ultraimg.com/images/jLgkf.png 
http://www.ultraimg.com/images/53vq1.png

----------------------------------------------------------------------------------------------------


Encoded using revolutionary 10bit encoding, which enables us to provide you more crispier 
and sharper images at small sizes, just make sure you follow our instructions without a fault.
Recommend to you to use latest version of VLC player. Install K-Lite Codec Pack or shark007 codecs
in case of any kind of problem in playback (For non-VLC Media Player users). Alternatively, install
Core AVC codecs, the fastest decoder that there is coupled with Community Center Codec Pack and play
on Windows Media Player Classic. Check sample to be sure.
Enjoy!

Encoder Notes:Looking For Early Access To Anything You Can Provide DVDScr, R5, DVDR, BluRay, Direct
Audio, Music Releases and Seedboxes. We require dedicated servers, so as to do more 
and fast releases of movies.
If You Got anything to offer please contact us at "contact@p2pdl.com".

Face book Fan Page:   
http://www.fb.me/p2pdl